<svg width="26" height="28" viewBox="0 0 26 28" fill="none" xmlns="http://www.w3.org/2000/svg">
<path d="M12.9109 7.1993C9.24796 7.1993 6.29345 10.2238 6.29345 13.9734C6.29345 17.7231 9.24796 20.7476 12.9109 20.7476C16.5738 20.7476 19.5283 17.7231 19.5283 13.9734C19.5283 10.2238 16.5738 7.1993 12.9109 7.1993ZM12.9109 18.3775C10.5438 18.3775 8.60868 16.4024 8.60868 13.9734C8.60868 11.5444 10.538 9.56936 12.9109 9.56936C15.2837 9.56936 17.213 11.5444 17.213 13.9734C17.213 16.4024 15.2779 18.3775 12.9109 18.3775ZM21.3425 6.9222C21.3425 7.80066 20.6513 8.50224 19.799 8.50224C18.9408 8.50224 18.2555 7.79476 18.2555 6.9222C18.2555 6.04964 18.9466 5.34216 19.799 5.34216C20.6513 5.34216 21.3425 6.04964 21.3425 6.9222ZM25.7253 8.52583C25.6274 6.40928 25.1551 4.53445 23.6404 2.98979C22.1315 1.44512 20.3 0.961674 18.2324 0.855552C16.1015 0.731743 9.71447 0.731743 7.58353 0.855552C5.52171 0.955779 3.69026 1.43922 2.17557 2.98389C0.660877 4.52856 0.194376 6.40338 0.0907087 8.51993C-0.0302362 10.7013 -0.0302362 17.2396 0.0907087 19.421C0.188616 21.5376 0.660877 23.4124 2.17557 24.9571C3.69026 26.5017 5.51595 26.9852 7.58353 27.0913C9.71447 27.2151 16.1015 27.2151 18.2324 27.0913C20.3 26.9911 22.1315 26.5076 23.6404 24.9571C25.1493 23.4124 25.6216 21.5376 25.7253 19.421C25.8462 17.2396 25.8462 10.7072 25.7253 8.52583ZM22.9723 21.7616C22.5231 22.9172 21.6535 23.8074 20.5189 24.2732C18.8199 24.963 14.7884 24.8038 12.9109 24.8038C11.0333 24.8038 6.99609 24.9571 5.30286 24.2732C4.17404 23.8133 3.30439 22.9231 2.8494 21.7616C2.17557 20.0224 2.33107 15.8954 2.33107 13.9734C2.33107 12.0514 2.18133 7.91857 2.8494 6.18524C3.29863 5.02969 4.16828 4.13944 5.30286 3.67368C7.00184 2.98389 11.0333 3.14307 12.9109 3.14307C14.7884 3.14307 18.8256 2.98979 20.5189 3.67368C21.6477 4.13355 22.5173 5.02379 22.9723 6.18524C23.6462 7.92447 23.4907 12.0514 23.4907 13.9734C23.4907 15.8954 23.6462 20.0283 22.9723 21.7616Z" fill="white"/>
</svg>
