<svg width="30" height="26" viewBox="0 0 30 26" fill="none" xmlns="http://www.w3.org/2000/svg">
<path d="M6.03333 11.2858C8.43333 15.295 12.3 18.5675 17.0167 20.6217L20.6833 17.505C21.1333 17.1225 21.8 16.995 22.3833 17.165C24.25 17.6892 26.2667 17.9725 28.3333 17.9725C29.25 17.9725 30 18.61 30 19.3892V24.3333C30 25.1125 29.25 25.75 28.3333 25.75C12.6833 25.75 0 14.9692 0 1.66667C0 0.8875 0.75 0.25 1.66667 0.25H7.5C8.41667 0.25 9.16667 0.8875 9.16667 1.66667C9.16667 3.4375 9.5 5.1375 10.1167 6.72417C10.3 7.22 10.1667 7.7725 9.7 8.16917L6.03333 11.2858Z" fill="white"/>
</svg>
