<svg width="35" height="30" viewBox="0 0 35 30" fill="none" xmlns="http://www.w3.org/2000/svg">
<path d="M3.67227 0.364746C1.90851 0.364746 0.477539 2.02159 0.477539 4.06375C0.477539 5.2274 0.950092 6.32169 1.75543 7.02295L16.2382 19.5996C16.9969 20.2546 18.0352 20.2546 18.794 19.5996L33.2767 7.02295C34.0821 6.32169 34.5546 5.2274 34.5546 4.06375C34.5546 2.02159 33.1237 0.364746 31.3599 0.364746H3.67227ZM0.477539 8.99576V25.0248C0.477539 27.7451 2.38772 29.9568 4.73717 29.9568H30.295C32.6444 29.9568 34.5546 27.7451 34.5546 25.0248V8.99576L20.0719 21.5724C18.5544 22.8901 16.4778 22.8901 14.9603 21.5724L0.477539 8.99576Z" fill="white"/>
</svg>
