<svg width="26" height="28" viewBox="0 0 26 28" fill="none" xmlns="http://www.w3.org/2000/svg">
<path d="M23.972 0.762695H1.83824C0.824037 0.762695 0 1.61785 0 2.66764V25.2792C0 26.329 0.824037 27.1842 1.83824 27.1842H23.972C24.9862 27.1842 25.816 26.329 25.816 25.2792V2.66764C25.816 1.61785 24.9862 0.762695 23.972 0.762695ZM7.80242 23.4097H3.97612V10.8005H7.80818V23.4097H7.80242ZM5.88927 9.07838C4.66186 9.07838 3.67071 8.05809 3.67071 6.80779C3.67071 5.55748 4.66186 4.53719 5.88927 4.53719C7.11092 4.53719 8.10783 5.55748 8.10783 6.80779C8.10783 8.06398 7.11668 9.07838 5.88927 9.07838ZM22.1453 23.4097H18.319V17.2761C18.319 15.8135 18.2902 13.9321 16.3309 13.9321C14.3371 13.9321 14.0317 15.5245 14.0317 17.17V23.4097H10.2054V10.8005H13.8761V12.5226H13.9279C14.4408 11.5318 15.6913 10.4879 17.5526 10.4879C21.425 10.4879 22.1453 13.1006 22.1453 16.4976V23.4097Z" fill="white"/>
</svg>
